# WaveFront *.obj file (generated by Autodesk ATF)

mtllib Typhoon.mtl

g Body1

v 2935.306006 0.000000 760.369096
v 2935.306006 -1593.393694 760.369096
v 3407.484478 -2748.550372 568.908171
v 2935.306006 -3502.802634 760.369096
v 2935.306006 -5500.000000 760.369096
v 7363.703305 -5500.000000 -1035.276180
v 7363.703305 0.000000 -1035.276180
v 2712.863410 -4140.394109 755.775033
v 3500.000000 -4183.129307 0.000000
v 3500.000000 -5500.000000 0.000000
v 2712.863410 -5500.000000 755.775033
v 2712.863410 -640.394109 755.775033
v 2712.863410 0.000000 755.775033
v 3500.000000 0.000000 0.000000
v 3500.000000 -683.129307 0.000000
v 0.000000 -14000.000000 0.000000
v -3500.000000 -4183.129307 0.000000
v -3500.000000 -683.129307 0.000000
v 0.000000 14000.000000 0.000000
v 2954.442833 0.000000 760.764325
v 2954.442833 -1675.380639 760.764325
v 3041.968130 -2728.705769 919.861403
v 0.000000 -2563.551320 3840.629655
v 2164.352146 -2681.058266 1762.510896
v 1941.571532 0.000000 1357.556602
v 2563.387030 0.000000 752.687926
v 2954.442833 -3447.950378 760.764325
v 2954.442833 -9000.000000 760.764325
v 2276.141441 -9000.000000 746.755499
v 2276.141441 -5392.178655 746.755499
v 1924.858746 -4649.110294 1327.177323
v -2276.141441 -5392.178655 746.755499
v -1924.858746 -4649.110294 1327.177323
v -1924.858746 -9000.000000 1327.177323
v -2276.141441 -9000.000000 746.755499
v -2164.352146 -2681.058266 1762.510896
v -1941.571532 0.000000 1357.556602
v -2251.877443 0.000000 1921.607973
v -2251.877443 -9000.000000 1921.607973
v -2563.387030 0.000000 752.687926
v -2712.863410 -640.394109 755.775033
v -2712.863410 0.000000 755.775033
v -2935.306006 -1593.393694 760.369096
v -2954.442833 -1675.380639 760.764325
v -2954.442833 0.000000 760.764325
v -2935.306006 0.000000 760.369096
v -2930.178835 0.000000 1935.616799
v -3281.461530 0.000000 1355.194976
v -3281.461530 -9000.000000 1355.194976
v -2930.178835 -9000.000000 1935.616799
v -2712.863410 -4140.394109 755.775033
v -2954.442833 -9000.000000 760.764325
v -2954.442833 -3447.950378 760.764325
v -2935.306006 -3502.802634 760.369096
v -2935.306006 -5500.000000 760.369096
v -2712.863410 -5500.000000 755.775033
v -3041.968130 -2728.705769 919.861403
v -7363.703305 -5500.000000 -1035.276180
v -3500.000000 -5500.000000 0.000000
v -3407.484478 -2748.550372 568.908171
v -7363.703305 0.000000 -1035.276180
v -3500.000000 0.000000 0.000000
v 3281.461530 0.000000 1355.194976
v 3281.461530 -9000.000000 1355.194976
v 2251.877443 0.000000 1921.607973
v 2930.178835 0.000000 1935.616799
v 1924.858746 -9000.000000 1327.177323
v 2251.877443 -9000.000000 1921.607973
v 2930.178835 -9000.000000 1935.616799
vt 477.860279 0.000000 0.000000
vt 477.860279 159.339369 0.000000
vt 0.000000 0.000000 0.000000
vt 426.908361 274.855037 0.000000
vt 0.000000 550.000000 0.000000
vt 477.860279 550.000000 0.000000
vt 477.860279 350.280263 0.000000
vt 23.691672 414.039411 0.000000
vt 132.814535 418.312931 0.000000
vt 23.691672 550.000000 0.000000
vt 132.814535 550.000000 0.000000
vt 23.691672 0.000000 0.000000
vt 132.814535 0.000000 0.000000
vt 23.691672 64.039411 0.000000
vt 132.814535 68.312931 0.000000
vt 0.000000 0.000000 0.000000
vt 400.000000 0.000000 0.000000
vt 0.000000 68.312931 0.000000
vt 0.000000 418.312931 0.000000
vt 400.000000 550.000000 0.000000
vt 0.000000 550.000000 0.000000
vt -81.348242 -223.997231 0.000000
vt -5.770739 -145.283572 0.000000
vt -81.807649 -201.752971 0.000000
vt 97.756879 241.086759 0.000000
vt -350.000000 -418.312931 0.000000
vt -0.000000 -1400.000000 0.000000
vt -350.000000 -68.312931 0.000000
vt -0.000000 1400.000000 0.000000
vt 350.000000 -68.312931 0.000000
vt 350.000000 -418.312931 0.000000
vt 65.930513 0.000000 0.000000
vt 67.844604 0.000000 0.000000
vt 65.930513 159.339369 0.000000
vt 67.844604 167.538064 0.000000
vt -1584.903109 107.532429 0.000000
vt -1593.322088 107.588323 0.000000
vt -1708.219052 80.455765 0.000000
vt -1697.813362 130.088047 0.000000
vt -1487.042608 106.882730 0.000000
vt -1509.451179 0.000000 0.000000
vt -1421.282569 106.446147 0.000000
vt 0.000000 0.000000 0.000000
vt -1406.864386 191.987496 0.000000
vt -1611.213196 543.147055 0.000000
vt -1672.828983 249.256681 0.000000
vt 43.681510 414.039411 0.000000
vt 43.681510 550.000000 0.000000
vt 0.000000 539.217865 0.000000
vt 0.000000 900.000000 0.000000
vt 67.844604 900.000000 0.000000
vt 65.930513 550.000000 0.000000
vt 67.844604 344.795038 0.000000
vt 65.930513 350.280263 0.000000
vt -103.769775 107.532429 0.000000
vt -16.868008 80.455765 0.000000
vt -97.960444 107.588323 0.000000
vt -27.273698 130.088047 0.000000
vt -171.296250 106.882730 0.000000
vt -303.871107 105.607175 0.000000
vt -148.887679 0.000000 0.000000
vt -1191.101428 0.000000 0.000000
vt -245.676552 187.691217 0.000000
vt -113.873866 543.147054 0.000000
vt -52.258080 249.256681 0.000000
vt 67.844604 464.911029 0.000000
vt 67.844604 900.000000 0.000000
vt 0.000000 539.217865 0.000000
vt 0.000000 900.000000 0.000000
vt 0.000000 900.000000 0.000000
vt 0.000000 464.911029 0.000000
vt 67.844604 900.000000 0.000000
vt 49.686256 268.105827 0.000000
vt 67.844604 0.000000 0.000000
vt 3.467301 0.000000 0.000000
vt 39.113919 0.000000 0.000000
vt 24.163094 64.039411 0.000000
vt 24.163094 0.000000 0.000000
vt 0.000000 167.538064 0.000000
vt 0.000000 0.000000 0.000000
vt 1.914091 159.339369 0.000000
vt 1.914091 0.000000 0.000000
vt -0.000000 0.000000 0.000000
vt 67.844604 -0.000000 0.000000
vt 0.000000 900.000000 0.000000
vt 67.844604 900.000000 0.000000
vt 0.000000 0.000000 0.000000
vt 67.844604 0.000000 0.000000
vt 0.000000 900.000000 0.000000
vt 67.844604 900.000000 0.000000
vt 24.163094 414.039411 0.000000
vt 67.844604 539.217865 0.000000
vt 24.163094 550.000000 0.000000
vt 67.844604 900.000000 0.000000
vt 0.000000 900.000000 0.000000
vt 1.914091 550.000000 0.000000
vt 0.000000 344.795038 0.000000
vt 1.914091 350.280263 0.000000
vt 67.844604 344.795038 0.000000
vt 67.844604 900.000000 0.000000
vt 49.686256 272.870577 0.000000
vt 0.000000 900.000000 0.000000
vt 0.000000 0.000000 0.000000
vt 67.844604 0.000000 0.000000
vt 67.844604 167.538064 0.000000
vt 58.042182 -35.128270 0.000000
vt 1.400883 67.830139 0.000000
vt -1.400883 -67.830139 0.000000
vt -58.042182 35.128270 0.000000
vt -59.443065 -32.701870 0.000000
vt 59.443065 32.701870 0.000000
vt -81.348242 223.997231 0.000000
vt -81.807649 201.752971 0.000000
vt -5.770739 145.283572 0.000000
vt 97.756879 -241.086759 0.000000
vt -1087.331654 107.532429 0.000000
vt -1093.140984 107.588323 0.000000
vt -1174.233420 80.455765 0.000000
vt -1163.827730 130.088047 0.000000
vt -52.258080 249.256681 0.000000
vt -113.873866 543.147055 0.000000
vt -318.222676 191.987496 0.000000
vt -1725.087062 0.000000 0.000000
vt -303.804494 106.446147 0.000000
vt -215.635883 0.000000 0.000000
vt -238.044454 106.882730 0.000000
vt -27.273698 130.088047 0.000000
vt -131.764972 107.588323 0.000000
vt -16.868008 80.455765 0.000000
vt -140.183951 107.532429 0.000000
vt 42.444373 350.280263 0.000000
vt 93.396291 274.855037 0.000000
vt 42.444373 550.000000 0.000000
vt 520.304652 550.000000 0.000000
vt 520.304652 -0.000000 0.000000
vt 42.444373 159.339369 0.000000
vt 42.444373 -0.000000 0.000000
vt 145.283572 -5.770739 0.000000
vt 201.752971 -81.807649 0.000000
vt 223.997231 -81.348242 0.000000
vt 167.137419 -141.290236 0.000000
vt 301.126418 -141.526399 0.000000
vt 270.095827 -197.931536 0.000000
vt 202.265688 -199.332419 0.000000
vt -241.086759 97.756879 0.000000
vt 199.839288 -81.847171 0.000000
vt 238.944869 -81.039532 0.000000
vt 0.000000 344.795038 0.000000
vt 18.158347 272.870577 0.000000
vt 0.000000 900.000000 0.000000
vt 67.844604 900.000000 0.000000
vt 67.844604 0.000000 0.000000
vt 0.000000 0.000000 0.000000
vt 0.000000 167.538064 0.000000
vt 43.681510 0.000000 0.000000
vt 43.681510 64.039411 0.000000
vt 28.730684 0.000000 0.000000
vt -3.977311 58.849822 0.000000
vt -66.158861 -1.637045 0.000000
vt 10.970327 58.541112 0.000000
vt 67.830139 -1.400883 0.000000
vt 33.214587 58.081705 0.000000
vt 35.128270 58.042182 0.000000
vt -35.128270 -58.042182 0.000000
vt 32.701870 -59.443065 0.000000
vt 476.054317 237.646233 0.000000
vt 89.683986 134.118615 0.000000
vt 0.000000 464.911029 0.000000
vt 67.844604 539.217865 0.000000
vt 0.000000 900.000000 0.000000
vt 67.844604 900.000000 0.000000
vt 67.844604 464.911029 0.000000
vt -0.000000 900.000000 0.000000
vt 18.158347 268.105827 0.000000
vt 0.000000 0.000000 0.000000
vt 64.377303 0.000000 0.000000
vt 67.844604 900.000000 0.000000
vt 0.000000 0.000000 0.000000
vt 67.844604 0.000000 0.000000
vt -0.000000 900.000000 0.000000
vt 67.844604 900.000000 0.000000
vt 0.000000 0.000000 0.000000
vt 67.844604 0.000000 0.000000
vt 0.000000 900.000000 0.000000
vt 67.844604 900.000000 0.000000
vt -59.443065 32.701870 0.000000
vt -58.042182 -35.128270 0.000000
vt -1.400883 67.830139 0.000000
vt 1.400883 -67.830139 0.000000
vt 58.042182 35.128270 0.000000
vt 59.443065 -32.701870 0.000000
vt 109.122863 414.039411 0.000000
vt 109.122863 550.000000 0.000000
vt 0.000000 418.312931 0.000000
vt 0.000000 550.000000 0.000000
vt 109.122863 0.000000 0.000000
vt 109.122863 64.039411 0.000000
vt 0.000000 0.000000 0.000000
vt 0.000000 68.312931 0.000000
vt 400.000000 0.000000 0.000000
vt 400.000000 68.312931 0.000000
vt 0.000000 0.000000 0.000000
vt 400.000000 418.312931 0.000000
vt 0.000000 550.000000 0.000000
vt 400.000000 550.000000 0.000000
vt -1019.805178 106.882730 0.000000
vt -1042.213750 0.000000 0.000000
vt -887.230321 105.607175 0.000000
vt 0.000000 0.000000 0.000000
vt -945.424876 187.691217 0.000000
vt -1077.227562 543.147055 0.000000
vt -1138.843349 249.256681 0.000000
vn 0.037577 0.000000 0.092671
vn 0.037577 0.000000 0.092671
vn 0.037577 0.000000 0.092671
vn 0.037577 0.000000 0.092671
vn 0.037577 0.000000 0.092671
vn 0.037577 0.000000 0.092671
vn 0.037577 0.000000 0.092671
vn -0.069259 0.000000 -0.072133
vn -0.069259 0.000000 -0.072133
vn -0.069259 0.000000 -0.072133
vn -0.069259 0.000000 -0.072133
vn -0.069259 0.000000 -0.072133
vn -0.069259 0.000000 -0.072133
vn -0.069259 0.000000 -0.072133
vn -0.069259 0.000000 -0.072133
vn -0.025882 0.000000 -0.096593
vn -0.025882 0.000000 -0.096593
vn -0.025882 0.000000 -0.096593
vn -0.025882 0.000000 -0.096593
vn -0.025882 0.000000 -0.096593
vn -0.025882 0.000000 -0.096593
vn 0.000000 -0.100000 0.000000
vn 0.000000 -0.100000 0.000000
vn 0.000000 -0.100000 0.000000
vn 0.000000 -0.100000 0.000000
vn -0.000000 0.000000 -0.100000
vn -0.000000 0.000000 -0.100000
vn -0.000000 0.000000 -0.100000
vn -0.000000 0.000000 -0.100000
vn -0.000000 0.000000 -0.100000
vn -0.000000 0.000000 -0.100000
vn 0.002065 0.000000 -0.099979
vn 0.002065 0.000000 -0.099979
vn 0.002065 0.000000 -0.099979
vn 0.002065 0.000000 -0.099979
vn 0.068784 0.016396 0.070711
vn 0.068784 0.016396 0.070711
vn 0.068784 0.016396 0.070711
vn 0.068784 0.016396 0.070711
vn 0.068784 0.016396 0.070711
vn 0.068784 0.016396 0.070711
vn 0.068784 0.016396 0.070711
vn 0.068784 0.016396 0.070711
vn 0.068784 0.016396 0.070711
vn 0.068784 0.016396 0.070711
vn 0.068784 0.016396 0.070711
vn 0.002065 0.000000 -0.099979
vn 0.002065 0.000000 -0.099979
vn 0.002065 0.000000 -0.099979
vn 0.002065 0.000000 -0.099979
vn 0.002065 0.000000 -0.099979
vn 0.002065 0.000000 -0.099979
vn 0.002065 0.000000 -0.099979
vn 0.002065 0.000000 -0.099979
vn 0.066604 -0.023746 0.070711
vn 0.066604 -0.023746 0.070711
vn 0.066604 -0.023746 0.070711
vn 0.066604 -0.023746 0.070711
vn 0.066604 -0.023746 0.070711
vn 0.066604 -0.023746 0.070711
vn 0.066604 -0.023746 0.070711
vn 0.066604 -0.023746 0.070711
vn 0.066604 -0.023746 0.070711
vn 0.066604 -0.023746 0.070711
vn 0.066604 -0.023746 0.070711
vn 0.085552 0.000000 -0.051778
vn 0.085552 0.000000 -0.051778
vn 0.085552 0.000000 -0.051778
vn 0.085552 0.000000 -0.051778
vn 0.087616 0.000000 0.048201
vn 0.087616 0.000000 0.048201
vn 0.087616 0.000000 0.048201
vn 0.087616 0.000000 0.048201
vn 0.087616 0.000000 0.048201
vn 0.087616 0.000000 0.048201
vn -0.002065 0.000000 -0.099979
vn -0.002065 0.000000 -0.099979
vn -0.002065 0.000000 -0.099979
vn -0.002065 0.000000 -0.099979
vn -0.002065 0.000000 -0.099979
vn -0.002065 0.000000 -0.099979
vn -0.002065 0.000000 -0.099979
vn -0.085552 0.000000 0.051778
vn -0.085552 0.000000 0.051778
vn -0.085552 0.000000 0.051778
vn -0.085552 0.000000 0.051778
vn 0.002065 0.000000 0.099979
vn 0.002065 0.000000 0.099979
vn 0.002065 0.000000 0.099979
vn 0.002065 0.000000 0.099979
vn -0.002065 0.000000 -0.099979
vn -0.002065 0.000000 -0.099979
vn -0.002065 0.000000 -0.099979
vn -0.002065 0.000000 -0.099979
vn -0.002065 0.000000 -0.099979
vn -0.002065 0.000000 -0.099979
vn -0.002065 0.000000 -0.099979
vn -0.002065 0.000000 -0.099979
vn -0.087616 0.000000 -0.048201
vn -0.087616 0.000000 -0.048201
vn -0.087616 0.000000 -0.048201
vn -0.087616 0.000000 -0.048201
vn -0.087616 0.000000 -0.048201
vn -0.087616 0.000000 -0.048201
vn -0.087616 0.000000 -0.048201
vn 0.000000 -0.100000 0.000000
vn 0.000000 -0.100000 0.000000
vn 0.000000 -0.100000 0.000000
vn 0.000000 -0.100000 0.000000
vn 0.000000 -0.100000 0.000000
vn 0.000000 -0.100000 0.000000
vn 0.000000 -0.100000 0.000000
vn 0.000000 -0.100000 0.000000
vn 0.000000 -0.100000 0.000000
vn 0.000000 -0.100000 0.000000
vn -0.066604 -0.023746 0.070711
vn -0.066604 -0.023746 0.070711
vn -0.066604 -0.023746 0.070711
vn -0.066604 -0.023746 0.070711
vn -0.068784 0.016396 0.070711
vn -0.068784 0.016396 0.070711
vn -0.068784 0.016396 0.070711
vn -0.068784 0.016396 0.070711
vn -0.068784 0.016396 0.070711
vn -0.068784 0.016396 0.070711
vn -0.068784 0.016396 0.070711
vn -0.068784 0.016396 0.070711
vn -0.068784 0.016396 0.070711
vn -0.068784 0.016396 0.070711
vn -0.068784 0.016396 0.070711
vn -0.037577 0.000000 0.092671
vn -0.037577 0.000000 0.092671
vn -0.037577 0.000000 0.092671
vn -0.037577 0.000000 0.092671
vn -0.037577 0.000000 0.092671
vn -0.037577 0.000000 0.092671
vn -0.037577 0.000000 0.092671
vn 0.000000 0.100000 0.000000
vn 0.000000 0.100000 0.000000
vn 0.000000 0.100000 0.000000
vn 0.000000 0.100000 0.000000
vn 0.000000 0.100000 0.000000
vn 0.000000 0.100000 0.000000
vn 0.000000 0.100000 0.000000
vn 0.000000 0.100000 0.000000
vn 0.000000 0.100000 0.000000
vn 0.000000 0.100000 0.000000
vn 0.087616 0.000000 -0.048201
vn 0.087616 0.000000 -0.048201
vn 0.087616 0.000000 -0.048201
vn 0.087616 0.000000 -0.048201
vn 0.087616 0.000000 -0.048201
vn 0.087616 0.000000 -0.048201
vn 0.087616 0.000000 -0.048201
vn 0.002065 0.000000 -0.099979
vn 0.002065 0.000000 -0.099979
vn 0.002065 0.000000 -0.099979
vn 0.000000 0.100000 0.000000
vn 0.000000 0.100000 0.000000
vn 0.000000 0.100000 0.000000
vn 0.000000 0.100000 0.000000
vn 0.000000 0.100000 0.000000
vn 0.000000 0.100000 0.000000
vn 0.000000 0.100000 0.000000
vn 0.000000 0.100000 0.000000
vn 0.000000 0.100000 0.000000
vn 0.000000 0.100000 0.000000
vn -0.085552 0.000000 -0.051778
vn -0.085552 0.000000 -0.051778
vn -0.085552 0.000000 -0.051778
vn -0.085552 0.000000 -0.051778
vn -0.087616 0.000000 0.048201
vn -0.087616 0.000000 0.048201
vn -0.087616 0.000000 0.048201
vn -0.087616 0.000000 0.048201
vn -0.087616 0.000000 0.048201
vn -0.087616 0.000000 0.048201
vn -0.002065 0.000000 0.099979
vn -0.002065 0.000000 0.099979
vn -0.002065 0.000000 0.099979
vn -0.002065 0.000000 0.099979
vn 0.085552 0.000000 0.051778
vn 0.085552 0.000000 0.051778
vn 0.085552 0.000000 0.051778
vn 0.085552 0.000000 0.051778
vn 0.000000 -0.100000 0.000000
vn 0.000000 -0.100000 0.000000
vn 0.000000 -0.100000 0.000000
vn 0.000000 -0.100000 0.000000
vn 0.000000 -0.100000 0.000000
vn 0.000000 -0.100000 0.000000
vn 0.069259 0.000000 -0.072133
vn 0.069259 0.000000 -0.072133
vn 0.069259 0.000000 -0.072133
vn 0.069259 0.000000 -0.072133
vn 0.069259 0.000000 -0.072133
vn 0.069259 0.000000 -0.072133
vn 0.069259 0.000000 -0.072133
vn 0.069259 0.000000 -0.072133
vn 0.025882 0.000000 -0.096593
vn 0.025882 0.000000 -0.096593
vn 0.025882 0.000000 -0.096593
vn 0.025882 0.000000 -0.096593
vn 0.025882 0.000000 -0.096593
vn 0.025882 0.000000 -0.096593
vn -0.066604 -0.023746 0.070711
vn -0.066604 -0.023746 0.070711
vn -0.066604 -0.023746 0.070711
vn -0.066604 -0.023746 0.070711
vn -0.066604 -0.023746 0.070711
vn -0.066604 -0.023746 0.070711
vn -0.066604 -0.023746 0.070711
usemtl Steel_-_Satin
f 1/1/1 2/2/2 7/3/3
f 7/3/3 2/2/2 3/4/4
f 7/3/3 3/4/4 6/5/5
f 6/5/5 3/4/4 5/6/6
f 5/6/6 3/4/4 4/7/7
f 8/8/8 9/9/9 11/10/10
f 11/10/10 9/9/9 10/11/11
f 13/12/12 14/13/13 12/14/14
f 12/14/14 14/13/13 15/15/15
f 14/16/16 7/17/17 15/18/18
f 15/18/18 7/17/17 9/19/19
f 9/19/19 7/17/17 6/20/20
f 9/19/19 6/20/20 10/21/21
f 11/22/22 10/23/23 5/24/24
f 5/24/24 10/23/23 6/25/25
f 9/26/26 16/27/27 15/28/28
f 15/28/28 16/27/27 19/29/29
f 19/29/29 16/27/27 18/30/30
f 18/30/30 16/27/27 17/31/31
f 1/32/32 20/33/33 2/34/34
f 2/34/34 20/33/33 21/35/35
f 2/36/36 21/37/37 3/38/38
f 3/38/38 21/37/37 22/39/39
f 12/40/40 15/41/41 26/42/42
f 26/42/42 15/41/41 19/43/43
f 26/42/42 19/43/43 25/44/44
f 25/44/44 19/43/43 23/45/45
f 25/44/44 23/45/45 24/46/46
f 8/47/47 11/48/48 30/49/49
f 30/49/49 11/48/48 29/50/50
f 29/50/50 11/48/48 28/51/51
f 28/51/51 11/48/48 5/52/52
f 28/51/51 5/52/52 27/53/53
f 27/53/53 5/52/52 4/54/54
f 4/55/55 3/56/56 27/57/57
f 27/57/57 3/56/56 22/58/58
f 8/59/59 30/60/60 9/61/61
f 9/61/61 30/60/60 16/62/62
f 16/62/62 30/60/60 31/63/63
f 16/62/62 31/63/63 23/64/64
f 23/64/64 31/63/63 24/65/65
f 33/66/66 34/67/67 32/68/68
f 32/68/68 34/67/67 35/69/69
f 34/70/70 33/71/71 39/72/72
f 39/72/72 33/71/71 36/73/73
f 39/72/72 36/73/73 38/74/74
f 38/74/74 36/73/73 37/75/75
f 40/76/76 41/77/77 42/78/78
f 44/79/79 45/80/80 43/81/81
f 43/81/81 45/80/80 46/82/82
f 47/83/83 48/84/84 50/85/85
f 50/85/85 48/84/84 49/86/86
f 38/87/87 47/88/88 39/89/89
f 39/89/89 47/88/88 50/90/90
f 51/91/91 32/92/92 56/93/93
f 56/93/93 32/92/92 35/94/94
f 56/93/93 35/94/94 52/95/95
f 56/93/93 52/95/95 55/96/96
f 55/96/96 52/95/95 53/97/97
f 55/96/96 53/97/97 54/98/98
f 53/99/99 52/100/100 57/101/101
f 57/101/101 52/100/100 49/102/102
f 57/101/101 49/102/102 48/103/103
f 48/103/103 45/104/104 57/101/101
f 57/101/101 45/104/104 44/105/105
f 52/106/106 34/107/107 49/108/108
f 49/108/108 34/107/107 39/109/109
f 49/108/108 39/109/109 50/110/110
f 52/106/106 35/111/111 34/107/107
f 56/112/112 55/113/113 59/114/114
f 59/114/114 55/113/113 58/115/115
f 54/116/116 53/117/117 60/118/118
f 60/118/118 53/117/117 57/119/119
f 36/120/120 23/121/121 37/122/122
f 37/122/122 23/121/121 19/123/123
f 37/122/122 19/123/123 40/124/124
f 40/124/124 19/123/123 18/125/125
f 40/124/124 18/125/125 41/126/126
f 57/127/127 44/128/128 60/129/129
f 60/129/129 44/128/128 43/130/130
f 54/131/131 60/132/132 55/133/133
f 55/133/133 60/132/132 58/134/134
f 58/134/134 60/132/132 61/135/135
f 61/135/135 60/132/132 43/136/136
f 61/135/135 43/136/136 46/137/137
f 62/138/138 46/139/139 42/140/140
f 42/140/140 46/139/139 48/141/141
f 42/140/140 48/141/141 37/142/142
f 37/142/142 48/141/141 38/143/143
f 38/143/143 48/141/141 47/144/144
f 62/138/138 61/145/145 46/139/139
f 46/139/139 45/146/146 48/141/141
f 37/142/142 40/147/147 42/140/140
f 27/148/148 22/149/149 28/150/150
f 28/150/150 22/149/149 64/151/151
f 64/151/151 22/149/149 63/152/152
f 63/152/152 22/149/149 20/153/153
f 20/153/153 22/149/149 21/154/154
f 13/155/155 12/156/156 26/157/157
f 26/158/158 25/159/159 13/160/160
f 13/160/160 25/159/159 63/161/161
f 13/160/160 63/161/161 1/162/162
f 1/162/162 63/161/161 20/163/163
f 25/159/159 65/164/164 63/161/161
f 63/161/161 65/164/164 66/165/165
f 7/166/166 14/167/167 1/162/162
f 1/162/162 14/167/167 13/160/160
f 31/168/168 30/169/169 67/170/170
f 67/170/170 30/169/169 29/171/171
f 31/172/172 68/173/173 24/174/174
f 24/174/174 68/173/173 65/175/175
f 24/174/174 65/175/175 25/176/176
f 31/172/172 67/177/177 68/173/173
f 66/178/178 65/179/179 69/180/180
f 69/180/180 65/179/179 68/181/181
f 63/182/182 66/183/183 64/184/184
f 64/184/184 66/183/183 69/185/185
f 69/186/186 68/187/187 64/188/188
f 64/188/188 68/187/187 67/189/189
f 64/188/188 67/189/189 28/190/190
f 28/190/190 67/189/189 29/191/191
f 51/192/192 56/193/193 17/194/194
f 17/194/194 56/193/193 59/195/195
f 42/196/196 41/197/197 62/198/198
f 62/198/198 41/197/197 18/199/199
f 62/200/200 18/201/201 61/202/202
f 61/202/202 18/201/201 17/203/203
f 61/202/202 17/203/203 58/204/204
f 58/204/204 17/203/203 59/205/205
f 51/206/206 17/207/207 32/208/208
f 32/208/208 17/207/207 16/209/209
f 32/208/208 16/209/209 33/210/210
f 33/210/210 16/209/209 23/211/211
f 33/210/210 23/211/211 36/212/212
# 69 vertices
# 212 texture params
# 212 normals
# 134 facets

# 1 groups
